<svg width="30" height="30" viewBox="0 0 30 30" fill="none" xmlns="http://www.w3.org/2000/svg">
<path fill-rule="evenodd" clip-rule="evenodd" d="M14.9541 0.360352C6.69725 0.360352 0 7.0576 0 15.3145C0 21.92 4.31193 27.5163 10.1835 29.5347C10.9174 29.6264 11.1927 29.1677 11.1927 28.8007C11.1927 28.4337 11.1927 27.5163 11.1927 26.2319C7.06422 27.1493 6.14679 24.2136 6.14679 24.2136C5.50459 22.4704 4.49541 22.0117 4.49541 22.0117C3.11927 21.0943 4.58716 21.0943 4.58716 21.0943C6.05505 21.186 6.88073 22.6539 6.88073 22.6539C8.25688 24.9475 10.367 24.3053 11.1927 23.9383C11.2844 22.9292 11.7431 22.287 12.1101 21.92C8.80734 21.553 5.3211 20.2686 5.3211 14.4888C5.3211 12.8374 5.87156 11.553 6.88073 10.4521C6.78899 10.1769 6.23853 8.61723 7.06422 6.59888C7.06422 6.59888 8.34862 6.23191 11.1927 8.15852C12.3853 7.79155 13.6697 7.6998 14.9541 7.6998C16.2385 7.6998 17.5229 7.88329 18.7156 8.15852C21.5596 6.23191 22.844 6.59888 22.844 6.59888C23.6697 8.61723 23.1193 10.1769 23.0275 10.5438C23.945 11.553 24.5872 12.9292 24.5872 14.5805C24.5872 20.3604 21.1009 21.553 17.7982 21.92C18.3486 22.3787 18.8073 23.2961 18.8073 24.6723C18.8073 26.6906 18.8073 28.2503 18.8073 28.8007C18.8073 29.1677 19.0826 29.6264 19.8165 29.5347C25.7798 27.5163 30 21.92 30 15.3145C29.9083 7.0576 23.211 0.360352 14.9541 0.360352Z" fill="white"/>
</svg>
