<svg width="50" height="51" viewBox="0 0 50 51" fill="none" xmlns="http://www.w3.org/2000/svg">
<path fill-rule="evenodd" clip-rule="evenodd" d="M25 3.75C26.6569 3.75 28 5.09315 28 6.75V24.5074L33.2953 19.212C34.4669 18.0404 36.3664 18.0404 37.538 19.212C38.7096 20.3836 38.7096 22.2831 37.538 23.4547L27.1213 33.8713C25.9497 35.0429 24.0503 35.0429 22.8787 33.8713L12.462 23.4547C11.2904 22.2831 11.2904 20.3836 12.462 19.212C13.6336 18.0404 15.5331 18.0404 16.7047 19.212L22 24.5074V6.75C22 5.09315 23.3431 3.75 25 3.75ZM6.25 28.75C7.90685 28.75 9.25 30.0931 9.25 31.75V40.0833C9.25 40.3927 9.37292 40.6895 9.59171 40.9083C9.8105 41.1271 10.1072 41.25 10.4167 41.25H39.5833C39.8927 41.25 40.1895 41.1271 40.4083 40.9083C40.6271 40.6895 40.75 40.3927 40.75 40.0833V31.75C40.75 30.0931 42.0931 28.75 43.75 28.75C45.4069 28.75 46.75 30.0931 46.75 31.75V40.0833C46.75 41.9841 45.9949 43.8069 44.6509 45.1509C43.3069 46.4949 41.4841 47.25 39.5833 47.25H10.4167C8.51595 47.25 6.69308 46.4949 5.34907 45.1509C4.00506 43.8069 3.25 41.9841 3.25 40.0833V31.75C3.25 30.0931 4.59315 28.75 6.25 28.75Z" fill="white"/>
</svg>
