<svg width="792" height="856" viewBox="0 0 792 856" fill="none" xmlns="http://www.w3.org/2000/svg">
<path d="M55.888 22.3263C113.668 -7.92094 232.633 -29.1688 246.26 127.818C263.294 324.05 448.948 59.8294 514.97 221.144C580.992 382.459 456.876 392.416 359.468 367.194C262.059 341.972 177.811 233.358 108.177 267.393C38.5427 301.429 -7.12396 357.115 2.44017 402.119C12.0043 447.123 96.0783 526.049 185.317 520.901C274.555 515.753 462.756 583.016 469.547 595.886C476.337 608.756 634.104 689.869 510.682 835.319M288.733 42.3021C346.513 12.0549 465.479 -9.193 479.106 147.793C496.139 344.026 681.793 79.8053 747.815 241.12C813.837 402.434 689.721 412.392 592.313 387.17C494.905 361.948 410.656 253.334 341.022 287.369C271.388 321.405 225.721 377.091 235.285 422.095C244.85 467.099 328.924 546.025 418.162 540.877C507.401 535.729 695.602 602.992 702.392 615.862C709.182 628.731 866.949 709.845 743.527 855.295M66.9758 23.2776C124.755 -6.96969 243.721 -28.2176 257.348 128.769C274.382 325.002 460.036 60.7807 526.058 222.095C592.08 383.41 467.964 393.367 370.556 368.145C273.147 342.923 188.899 234.309 119.265 268.345C49.6306 302.38 3.96392 358.066 13.5281 403.071C23.0922 448.075 107.166 527 196.405 521.852C285.643 516.704 473.844 583.967 480.635 596.837C487.425 609.707 645.192 690.821 521.77 836.27M78.0637 24.2288C135.843 -6.01846 254.809 -27.2664 268.436 129.72C285.47 325.953 471.124 61.7319 537.145 223.046C603.167 384.361 479.052 394.319 381.644 369.096C284.235 343.874 199.987 235.26 130.352 269.296C60.7184 303.331 15.0518 359.018 24.6159 404.022C34.18 449.026 118.254 527.951 207.493 522.803C296.731 517.655 484.932 584.918 491.722 597.788C498.513 610.658 656.28 691.772 532.858 837.222M89.1516 25.18C146.931 -5.06728 265.897 -26.3152 279.524 130.671C296.557 326.904 482.211 62.6831 548.233 223.998C614.255 385.312 490.14 395.27 392.731 370.048C295.323 344.825 211.074 236.211 141.44 270.247C71.8063 304.282 26.1396 359.969 35.7038 404.973C45.2679 449.977 129.342 528.902 218.58 523.754C307.819 518.606 496.02 585.869 502.81 598.739C509.601 611.609 667.368 692.723 543.946 838.173M100.239 26.1312C158.019 -4.11604 276.985 -25.3639 290.612 131.622C307.645 327.855 493.299 63.6343 559.321 224.949C625.343 386.263 501.228 396.221 403.819 370.999C306.411 345.777 222.162 237.163 152.528 271.198C82.8942 305.234 37.2275 360.92 46.7917 405.924C56.3558 450.928 140.43 529.854 229.668 524.706C318.907 519.558 507.108 586.821 513.898 599.691C520.689 612.561 678.455 693.674 555.034 839.124M111.327 27.0825C169.107 -3.16479 288.073 -24.4127 301.7 132.574C318.733 328.807 504.387 64.5856 570.409 225.9C636.431 387.215 512.316 397.172 414.907 371.95C317.499 346.728 233.25 238.114 163.616 272.149C93.982 306.185 48.3154 361.871 57.8795 406.875C67.4437 451.88 151.518 530.805 240.756 525.657C329.995 520.509 518.196 587.772 524.986 600.642C531.776 613.512 689.543 694.625 566.122 840.075M122.415 28.0337C180.195 -2.21357 299.161 -23.4615 312.787 133.525C329.821 329.758 515.475 65.5368 581.497 226.851C647.519 388.166 523.403 398.124 425.995 372.901C328.587 347.679 244.338 239.065 174.704 273.101C105.07 307.136 59.4033 362.823 68.9674 407.827C78.5315 452.831 162.606 531.756 251.844 526.608C341.083 521.46 529.284 588.723 536.074 601.593C542.864 614.463 700.631 695.577 577.209 841.027M133.503 28.9849C191.283 -1.26233 310.249 -22.5102 323.875 134.476C340.909 330.709 526.563 66.488 592.585 227.803C658.607 389.117 534.491 399.075 437.083 373.853C339.674 348.63 255.426 240.016 185.792 274.052C116.158 308.087 70.4911 363.774 80.0552 408.778C89.6194 453.782 173.693 532.707 262.932 527.559C352.171 522.411 540.372 589.674 547.162 602.544C553.952 615.414 711.719 696.528 588.297 841.978M144.591 29.9361C202.371 -0.311139 321.336 -21.559 334.963 135.427C351.997 331.66 537.651 67.4392 603.673 228.754C669.695 390.068 545.579 400.026 448.171 374.804C350.762 349.582 266.514 240.968 196.88 275.003C127.246 309.039 81.579 364.725 91.1431 409.729C100.707 454.733 184.781 533.659 274.02 528.511C363.258 523.362 551.459 590.626 558.25 603.495C565.04 616.365 722.807 697.479 599.385 842.929M155.679 30.8873C213.458 0.6401 332.424 -20.6078 346.051 136.379C363.085 332.611 548.739 68.3905 614.761 229.705C680.783 391.02 556.667 400.977 459.259 375.755C361.85 350.533 277.602 241.919 207.968 275.954C138.334 309.99 92.6669 365.676 102.231 410.68C111.795 455.684 195.869 534.61 285.108 529.462C374.346 524.314 562.547 591.577 569.338 604.447C576.128 617.317 733.895 698.43 610.473 843.88M166.767 31.8386C224.546 1.59133 343.512 -19.6566 357.139 137.33C374.173 333.563 559.827 69.3417 625.848 230.656C691.87 391.971 567.755 401.929 470.346 376.706C372.938 351.484 288.69 242.87 219.055 276.906C149.421 310.941 103.755 366.627 113.319 411.632C122.883 456.636 206.957 535.561 296.196 530.413C385.434 525.265 573.635 592.528 580.425 605.398C587.216 618.268 744.983 699.382 621.561 844.831M177.855 32.7898C235.634 2.54258 354.6 -18.7053 368.227 138.281C385.26 334.514 570.914 70.2929 636.936 231.608C702.958 392.922 578.843 402.88 481.434 377.657C384.026 352.435 299.777 243.821 230.143 277.857C160.509 311.892 114.843 367.579 124.407 412.583C133.971 457.587 218.045 536.512 307.283 531.364C396.522 526.216 584.723 593.479 591.513 606.349C598.304 619.219 756.071 700.333 632.649 845.783M188.942 33.7411C246.722 3.49381 365.688 -17.7541 379.315 139.232C396.348 335.465 582.002 71.2442 648.024 232.559C714.046 393.873 589.931 403.831 492.522 378.609C395.114 353.386 310.865 244.773 241.231 278.808C171.597 312.844 125.93 368.53 135.495 413.534C145.059 458.538 229.133 537.464 318.371 532.315C407.61 527.167 595.811 594.43 602.601 607.3C609.391 620.17 767.158 701.284 643.737 846.734M200.03 34.6923C257.81 4.44505 376.776 -16.8029 390.403 140.184C407.436 336.416 593.09 72.1954 659.112 233.51C725.134 394.825 601.019 404.782 503.61 379.56C406.202 354.338 321.953 245.724 252.319 279.759C182.685 313.795 137.018 369.481 146.582 414.485C156.147 459.489 240.221 538.415 329.459 533.267C418.698 528.119 606.899 595.382 613.689 608.252C620.479 621.122 778.246 702.235 654.825 847.685M211.118 35.6435C268.898 5.39623 387.864 -15.8517 401.49 141.135C418.524 337.368 604.178 73.1466 670.2 234.461C736.222 395.776 612.106 405.733 514.698 380.511C417.29 355.289 333.041 246.675 263.407 280.71C193.773 314.746 148.106 370.432 157.67 415.436C167.234 460.441 251.309 539.366 340.547 534.218C429.786 529.07 617.987 596.333 624.777 609.203C631.567 622.073 789.334 703.186 665.912 848.636M222.206 36.5947C279.986 6.34747 398.952 -14.9004 412.578 142.086C429.612 338.319 615.266 74.0978 681.288 235.412C747.31 396.727 623.194 406.685 525.786 381.462C428.377 356.24 344.129 247.626 274.495 281.662C204.861 315.697 159.194 371.384 168.758 416.388C178.322 461.392 262.396 540.317 351.635 535.169C440.873 530.021 629.075 597.284 635.865 610.154C642.655 623.024 800.422 704.138 677 849.588M233.294 37.546C291.073 7.29871 410.039 -13.9492 423.666 143.037C440.7 339.27 626.354 75.0491 692.376 236.364C758.398 397.678 634.282 407.636 536.874 382.414C439.465 357.191 355.217 248.577 285.583 282.613C215.949 316.648 170.282 372.335 179.846 417.339C189.41 462.343 273.484 541.268 362.723 536.12C451.961 530.972 640.162 598.235 646.953 611.105C653.743 623.975 811.51 705.089 688.088 850.539M244.382 38.4971C302.161 8.24989 421.127 -12.998 434.754 143.988C451.788 340.221 637.442 76.0003 703.464 237.315C769.486 398.629 645.37 408.587 547.962 383.365C450.553 358.143 366.305 249.529 296.671 283.564C227.037 317.6 181.37 373.286 190.934 418.29C200.498 463.294 284.572 542.22 373.811 537.072C463.049 531.924 651.25 599.187 658.041 612.057C664.831 624.926 822.598 706.04 699.176 851.49M255.47 39.4484C313.249 9.20119 432.215 -12.0467 445.842 144.94C462.875 341.173 648.529 76.9516 714.551 238.266C780.573 399.581 656.458 409.538 559.049 384.316C461.641 359.094 377.393 250.48 307.758 284.515C238.124 318.551 192.458 374.237 202.022 419.241C211.586 464.246 295.66 543.171 384.899 538.023C474.137 532.875 662.338 600.138 669.128 613.008C675.919 625.878 833.686 706.991 710.264 852.441M266.558 40.3996C324.337 10.1524 443.303 -11.0955 456.93 145.891C473.963 342.124 659.617 77.9027 725.639 239.217C791.661 400.532 667.546 410.49 570.137 385.267C472.729 360.045 388.48 251.431 318.846 285.467C249.212 319.502 203.546 375.188 213.11 420.193C222.674 465.197 306.748 544.122 395.986 538.974C485.225 533.826 673.426 601.089 680.216 613.959C687.007 626.829 844.774 707.943 721.352 853.393M277.645 41.3509C335.425 11.1037 454.391 -10.1442 468.018 146.842C485.051 343.075 670.705 78.854 736.727 240.169C802.749 401.483 678.634 411.441 581.225 386.219C483.817 360.996 399.568 252.382 329.934 286.418C260.3 320.453 214.633 376.14 224.198 421.144C233.762 466.148 317.836 545.073 407.074 539.925C496.313 534.777 684.514 602.04 691.304 614.91C698.094 627.78 855.861 708.894 732.44 854.344" stroke="#454C8B" stroke-width="2"/>
</svg>
