<svg width="1420" height="1068" viewBox="0 0 1420 1068" fill="none" xmlns="http://www.w3.org/2000/svg">
<path d="M716.475 983.759C821.162 993.756 1028.87 972.535 1022.2 807.672C1015.52 642.808 808.982 604.054 706.545 605.285C454.991 606.623 39.5425 583.226 390.18 478.929C740.818 374.632 953.51 509.041 1016.03 589.282C1184.1 706.245 1496.41 872.097 1401.05 599.801C1305.68 327.504 998.092 275.399 856.217 283.384C787.105 330.77 585.569 407.98 332.319 337.736C79.0695 267.493 370.277 97.5114 547.537 21.3011C698.659 -8.40823 1045.34 -26.1768 1223.12 140.424M484.68 1064.74C589.368 1074.74 797.075 1053.51 790.402 888.651C783.729 723.788 577.187 685.033 474.751 686.264C223.197 687.603 -192.252 664.205 158.386 559.908C509.024 455.612 721.715 590.02 784.231 670.262C952.308 787.225 1264.62 953.077 1169.25 680.78C1073.89 408.483 766.297 356.379 624.422 364.364C555.31 411.749 353.774 488.959 100.525 418.716C-152.725 348.472 138.483 178.491 315.743 102.281C466.864 72.5713 813.55 54.8028 991.321 221.403M705.437 987.615C810.125 997.612 1017.83 976.391 1011.16 811.528C1004.49 646.664 797.944 607.91 695.508 609.141C443.953 610.479 28.5048 587.082 379.143 482.785C729.781 378.488 942.472 512.897 1004.99 593.138C1173.06 710.102 1485.38 875.954 1390.01 603.657C1294.65 331.36 987.054 279.256 845.179 287.241C776.067 334.626 574.531 411.836 321.282 341.592C68.0317 271.349 359.239 101.368 536.5 25.1573C687.621 -4.5521 1034.31 -22.3206 1212.08 144.28M694.399 991.471C799.087 1001.47 1006.79 980.248 1000.12 815.384C993.448 650.521 786.906 611.766 684.47 612.997C432.915 614.335 17.4668 590.938 368.105 486.641C718.743 382.344 931.434 516.753 993.95 596.995C1162.03 713.958 1474.34 879.81 1378.97 607.513C1283.61 335.216 976.016 283.112 834.141 291.097C765.029 338.482 563.493 415.692 310.244 345.449C56.9937 275.205 348.201 105.224 525.462 29.0135C676.583 -0.695887 1023.27 -18.4644 1201.04 148.136M683.361 995.327C788.049 1005.32 995.756 984.104 989.083 819.24C982.41 654.377 775.868 615.622 673.432 616.853C421.878 618.192 6.42905 594.794 357.067 490.497C707.705 386.2 920.396 520.609 982.912 600.851C1150.99 717.814 1463.3 883.666 1367.94 611.369C1272.57 339.072 964.978 286.968 823.103 294.953C753.991 342.338 552.456 419.548 299.206 349.305C45.956 279.061 337.164 109.08 514.424 32.8696C665.545 3.16025 1012.23 -14.6083 1190 151.992M672.323 999.184C777.011 1009.18 984.718 987.96 978.045 823.096C971.372 658.233 764.83 619.479 662.394 620.709C410.84 622.048 -4.60895 598.65 346.029 494.354C696.667 390.057 909.358 524.465 971.874 604.707C1139.95 721.67 1452.26 887.522 1356.9 615.225C1261.53 342.929 953.94 290.824 812.065 298.809C742.953 346.195 541.418 423.405 288.168 353.161C34.918 282.917 326.126 112.936 503.386 36.7258C654.507 7.01646 1001.19 -10.7521 1178.96 155.849M661.286 1003.04C765.973 1013.04 973.681 991.816 967.007 826.953C960.334 662.089 753.793 623.335 651.356 624.566C399.802 625.904 -15.6467 602.507 334.991 498.21C685.629 393.913 898.321 528.322 960.837 608.563C1128.91 725.526 1441.22 891.378 1345.86 619.081C1250.49 346.785 942.903 294.68 801.027 302.665C731.916 350.051 530.38 427.261 277.13 357.017C23.8802 286.774 315.088 116.792 492.348 40.582C643.47 10.8726 990.156 -6.89595 1167.93 159.705M650.248 1006.9C754.936 1016.89 962.643 995.672 955.97 830.809C949.296 665.945 742.755 627.191 640.318 628.422C388.764 629.76 -26.6845 606.363 323.953 502.066C674.591 397.769 887.283 532.178 949.799 612.419C1117.88 729.382 1430.19 895.235 1334.82 622.938C1239.46 350.641 931.865 298.537 789.99 306.521C720.878 353.907 519.342 431.117 266.092 360.873C12.8425 290.63 304.05 120.648 481.31 44.4382C632.432 14.7288 979.118 -3.03969 1156.89 163.561M639.21 1010.75C743.898 1020.75 951.605 999.528 944.932 834.665C938.258 669.801 731.717 631.047 629.28 632.278C377.726 633.616 -37.7224 610.219 312.916 505.922C663.553 401.625 876.245 536.034 938.761 616.275C1106.84 733.239 1419.15 899.091 1323.78 626.794C1228.42 354.497 920.827 302.393 778.952 310.378C709.84 357.763 508.304 434.973 255.054 364.73C1.8045 294.486 293.012 124.505 470.272 48.2943C621.394 18.5849 968.08 0.816397 1145.85 167.417M628.172 1014.61C732.86 1024.61 940.567 1003.38 933.894 838.521C927.221 673.658 720.679 634.903 618.243 636.134C366.689 637.472 -48.7602 614.075 301.878 509.778C652.516 405.481 865.207 539.89 927.723 620.132C1095.8 737.095 1408.11 902.947 1312.75 630.65C1217.38 358.353 909.789 306.249 767.914 314.234C698.802 361.619 497.266 438.829 244.017 368.586C-9.23324 298.342 281.974 128.361 459.235 52.1504C610.356 22.4411 957.042 4.67253 1134.81 171.273M617.134 1018.46C721.822 1028.46 929.529 1007.24 922.856 842.377C916.183 677.514 709.641 638.759 607.205 639.99C355.651 641.329 -59.7979 617.931 290.84 513.634C641.478 409.338 854.169 543.746 916.685 623.988C1084.76 740.951 1397.07 906.803 1301.71 634.506C1206.34 362.209 898.751 310.105 756.876 318.09C687.764 365.475 486.229 442.685 232.979 372.442C-20.271 302.198 270.937 132.217 448.197 56.0067C599.318 26.2973 946.004 8.52879 1123.78 175.129M606.096 1022.32C710.784 1032.32 918.491 1011.1 911.818 846.233C905.145 681.37 698.603 642.616 596.167 643.846C344.613 645.185 -70.8359 621.787 279.802 517.491C630.44 413.194 843.131 547.602 905.647 627.844C1073.72 744.807 1386.04 910.659 1290.67 638.362C1195.31 366.066 887.713 313.961 745.838 321.946C676.726 369.332 475.191 446.542 221.941 376.298C-31.309 306.054 259.899 136.073 437.159 59.8628C588.28 30.1534 934.966 12.3849 1112.74 178.985M595.059 1026.18C699.746 1036.17 907.454 1014.95 900.78 850.09C894.107 685.226 687.566 646.472 585.129 647.703C333.575 649.041 -81.8737 625.644 268.764 521.347C619.402 417.05 832.094 551.459 894.61 631.7C1062.69 748.663 1375 914.515 1279.63 642.219C1184.27 369.922 876.676 317.817 734.8 325.802C665.689 373.188 464.153 450.398 210.903 380.154C-42.3467 309.911 248.861 139.929 426.121 63.7191C577.243 34.0097 923.929 16.2411 1101.7 182.842M584.021 1030.03C688.708 1040.03 896.416 1018.81 889.742 853.946C883.069 689.082 676.528 650.328 574.091 651.559C322.537 652.897 -92.9117 629.5 257.726 525.203C608.364 420.906 821.056 555.315 883.572 635.556C1051.65 752.519 1363.96 918.371 1268.59 646.075C1173.23 373.778 865.638 321.673 723.762 329.658C654.651 377.044 453.115 454.254 199.865 384.01C-53.3847 313.767 237.823 143.785 415.083 67.5751C566.205 37.8658 912.891 20.0972 1090.66 186.698M572.983 1033.89C677.671 1043.89 885.378 1022.67 878.705 857.802C872.031 692.938 665.49 654.184 563.053 655.415C311.499 656.753 -103.949 633.356 246.689 529.059C597.326 424.762 810.018 559.171 872.534 639.413C1040.61 756.376 1352.92 922.228 1257.56 649.931C1162.19 377.634 854.6 325.53 712.725 333.515C643.613 380.9 442.077 458.11 188.827 387.867C-64.4225 317.623 226.785 147.642 404.045 71.4314C555.167 41.722 901.853 23.9535 1079.62 190.554M561.945 1037.75C666.633 1047.74 874.34 1026.52 867.667 861.658C860.994 696.795 654.452 658.04 552.016 659.271C300.462 660.61 -114.987 637.212 235.651 532.915C586.289 428.618 798.98 563.027 861.496 643.269C1029.57 760.232 1341.88 926.084 1246.52 653.787C1151.15 381.49 843.562 329.386 701.687 337.371C632.575 384.756 431.039 461.966 177.79 391.723C-75.4602 321.479 215.747 151.498 393.008 75.2875C544.129 45.5782 890.815 27.8096 1068.59 194.41M550.907 1041.6C655.595 1051.6 863.302 1030.38 856.629 865.514C849.956 700.651 643.414 661.896 540.978 663.127C289.424 664.466 -126.025 641.068 224.613 536.771C575.251 432.474 787.942 566.883 850.458 647.125C1018.53 764.088 1330.85 929.94 1235.48 657.643C1140.12 385.346 832.524 333.242 690.649 341.227C621.537 388.612 420.001 465.822 166.752 395.579C-86.4982 325.335 204.71 155.354 381.97 79.1436C533.091 49.4342 879.777 31.6657 1057.55 198.266M539.869 1045.46C644.557 1055.45 852.264 1034.23 845.591 869.37C838.918 704.507 632.376 665.753 529.94 666.983C278.386 668.322 -137.063 644.925 213.575 540.628C564.213 436.331 776.904 570.74 839.42 650.981C1007.5 767.944 1319.81 933.796 1224.44 661.499C1129.08 389.203 821.487 337.098 679.611 345.083C610.5 392.469 408.964 469.679 155.714 399.435C-97.536 329.192 193.672 159.21 370.932 82.9999C522.053 53.2905 868.739 35.522 1046.51 202.123M528.832 1049.31C633.519 1059.31 841.227 1038.09 834.553 873.227C827.88 708.363 621.339 669.609 518.902 670.84C267.348 672.178 -148.101 648.781 202.537 544.484C553.175 440.187 765.867 574.596 828.383 654.837C996.459 771.8 1308.77 937.652 1213.41 665.355C1118.04 393.059 810.449 340.954 668.573 348.939C599.462 396.325 397.926 473.535 144.676 403.291C-108.574 333.048 182.634 163.066 359.894 86.856C511.016 57.1466 857.702 39.3781 1035.47 205.979M517.794 1053.17C622.481 1063.17 830.189 1041.95 823.515 877.083C816.842 712.219 610.301 673.465 507.864 674.696C256.31 676.034 -159.139 652.637 191.499 548.34C542.137 444.043 754.829 578.452 817.345 658.693C985.421 775.656 1297.73 941.509 1202.37 669.212C1107 396.915 799.411 344.811 657.535 352.795C588.424 400.181 386.888 477.391 133.638 407.147C-119.612 336.904 171.596 166.922 348.856 90.7122C499.978 61.0028 846.664 43.2343 1024.43 209.835M506.756 1057.03C611.444 1067.02 819.151 1045.8 812.478 880.939C805.804 716.075 599.263 677.321 496.826 678.552C245.272 679.89 -170.176 656.493 180.462 552.196C531.1 447.899 743.791 582.308 806.307 662.55C974.383 779.513 1286.69 945.365 1191.33 673.068C1095.96 400.771 788.373 348.667 646.498 356.652C577.386 404.037 375.85 481.247 122.6 411.004C-130.649 340.76 160.558 170.779 337.818 94.5684C488.94 64.859 835.626 47.0904 1013.4 213.691M495.718 1060.88C600.406 1070.88 808.113 1049.66 801.44 884.795C794.766 719.932 588.225 681.177 485.788 682.408C234.234 683.747 -181.214 660.349 169.424 556.052C520.062 451.755 732.753 586.164 795.269 666.406C963.345 783.369 1275.66 949.221 1180.29 676.924C1084.93 404.627 777.335 352.523 635.46 360.508C566.348 407.893 364.812 485.103 111.562 414.86C-141.687 344.616 149.52 174.635 326.78 98.4246C477.902 68.7152 824.588 50.9467 1002.36 217.547" stroke="#D0722E" stroke-width="2"/>
</svg>
