<svg width="1381" height="1415" viewBox="0 0 1381 1415" fill="none" xmlns="http://www.w3.org/2000/svg">
<path d="M393.233 2.71599C302.15 -8.18676 100.965 31.8151 24.8909 279.044C-51.1831 526.273 284.359 700.868 461.64 757.261C648.818 793.103 960.179 942.006 708.203 1250.89C456.227 1559.78 131.885 1337.99 1.21167 1188.48M969.802 9.48321C878.718 -1.41953 677.533 38.5823 601.459 285.811C525.385 533.041 860.928 707.635 1038.21 764.029C1225.39 799.87 1536.75 948.774 1284.77 1257.66C1032.8 1566.55 708.454 1344.76 577.78 1195.25M420.689 3.03816C329.606 -7.86459 128.421 32.1372 52.3466 279.366C-23.7274 526.596 311.815 701.19 489.095 757.584C676.273 793.425 987.635 942.329 735.659 1251.21C483.683 1560.1 159.341 1338.31 28.6674 1188.81M448.144 3.36051C357.061 -7.54223 155.876 32.4596 79.8021 279.689C3.72818 526.918 339.27 701.512 516.551 757.906C703.729 793.747 1015.09 942.651 763.115 1251.54C511.138 1560.42 186.797 1338.63 56.1229 1189.13M475.6 3.68268C384.517 -7.22006 183.332 32.7817 107.258 280.011C31.1839 527.24 366.726 701.835 544.007 758.228C731.185 794.069 1042.55 942.973 790.57 1251.86C538.594 1560.75 214.252 1338.96 83.5787 1189.45M503.056 4.00504C411.972 -6.89771 210.787 33.1041 134.713 280.333C58.6394 527.562 394.182 702.157 571.462 758.55C758.64 794.392 1070 943.296 818.026 1252.18C566.05 1561.07 241.708 1339.28 111.034 1189.77M530.511 4.32721C439.428 -6.57554 238.243 33.4263 162.169 280.655C86.0952 527.885 421.637 702.479 598.918 758.873C786.096 794.714 1097.46 943.618 845.482 1252.5C593.505 1561.39 269.164 1339.6 138.49 1190.1M557.967 4.64956C466.884 -6.25319 265.699 33.7486 189.625 280.978C113.551 528.207 449.093 702.801 626.373 759.195C813.551 795.036 1124.91 943.94 872.937 1252.83C620.961 1561.71 296.619 1339.92 165.945 1190.42M585.423 4.97173C494.339 -5.93102 293.154 34.0708 217.08 281.3C141.006 528.529 476.549 703.124 653.829 759.517C841.007 795.358 1152.37 944.262 900.393 1253.15C648.417 1562.03 324.075 1340.25 193.401 1190.74M612.878 5.2939C521.795 -5.60885 320.61 34.393 244.536 281.622C168.462 528.851 504.004 703.446 681.285 759.839C868.463 795.68 1179.82 944.584 927.848 1253.47C675.872 1562.36 351.531 1340.57 220.857 1191.06M640.334 5.61625C549.251 -5.28649 348.066 34.7153 271.992 281.945C195.918 529.174 531.46 703.768 708.74 760.162C895.918 796.003 1207.28 944.907 955.304 1253.79C703.328 1562.68 378.986 1340.89 248.312 1191.38M667.789 5.93842C576.706 -4.96432 375.521 35.0375 299.447 282.267C223.373 529.496 558.916 704.09 736.196 760.484C923.374 796.325 1234.74 945.229 982.76 1254.12C730.784 1563 406.442 1341.21 275.768 1191.71M695.245 6.26078C604.162 -4.64197 402.977 35.3598 326.903 282.589C250.829 529.818 586.371 704.413 763.652 760.806C950.83 796.647 1262.19 945.551 1010.22 1254.44C758.239 1563.32 433.898 1341.53 303.224 1192.03M722.701 6.58295C631.617 -4.3198 430.432 35.682 354.358 282.911C278.285 530.14 613.827 704.735 791.107 761.128C978.285 796.969 1289.65 945.873 1037.67 1254.76C785.695 1563.65 461.353 1341.86 330.679 1192.35M750.156 6.9053C659.073 -3.99745 457.888 36.0044 381.814 283.234C305.74 530.463 641.282 705.057 818.563 761.451C1005.74 797.292 1317.1 946.196 1065.13 1255.08C813.151 1563.97 488.809 1342.18 358.135 1192.67M777.612 7.22747C686.529 -3.67528 485.344 36.3265 409.27 283.556C333.196 530.785 668.738 705.379 846.018 761.773C1033.2 797.614 1344.56 946.518 1092.58 1255.4C840.606 1564.29 516.264 1342.5 385.591 1193M805.068 7.54964C713.984 -3.35311 512.799 36.6487 436.725 283.878C360.652 531.107 696.194 705.701 873.474 762.095C1060.65 797.936 1372.01 946.84 1120.04 1255.73C868.062 1564.61 543.72 1342.82 413.046 1193.32M832.523 7.872C741.44 -3.03075 540.255 36.9711 464.181 284.2C388.107 531.429 723.649 706.024 900.93 762.417C1088.11 798.259 1399.47 947.162 1147.49 1256.05C895.517 1564.93 571.176 1343.15 440.502 1193.64M859.979 8.19417C768.896 -2.70858 567.711 37.2932 491.637 284.522C415.563 531.752 751.105 706.346 928.385 762.74C1115.56 798.581 1426.93 947.485 1174.95 1256.37C922.973 1565.26 598.631 1343.47 467.958 1193.96M887.435 8.51652C796.351 -2.38623 595.166 37.6156 519.092 284.845C443.018 532.074 778.561 706.668 955.841 763.062C1143.02 798.903 1454.38 947.807 1202.4 1256.69C950.429 1565.58 626.087 1343.79 495.413 1194.28M914.89 8.83869C823.807 -2.06406 622.622 37.9378 546.548 285.167C470.474 532.396 806.016 706.991 983.297 763.384C1170.47 799.225 1481.84 948.129 1229.86 1257.02C977.884 1565.9 653.543 1344.11 522.869 1194.61M942.346 9.16104C851.263 -1.7417 650.078 38.2601 574.004 285.489C497.93 532.718 833.472 707.313 1010.75 763.706C1197.93 799.548 1509.29 948.452 1257.32 1257.34C1005.34 1566.22 680.998 1344.43 550.324 1194.93" stroke="#F52B2B" stroke-width="2"/>
</svg>
