<svg width="1887" height="2025" viewBox="0 0 1887 2025" fill="none" xmlns="http://www.w3.org/2000/svg">
<path d="M1.21191 258.443C164.045 151.276 473.912 11.2427 410.712 308.443C331.712 679.943 -53.7881 661.943 106.712 1018.94C235.112 1304.54 612.545 1303.61 785.212 1267.44C1045.38 1186.78 1484.41 1080.34 1159.21 1299.94C752.712 1574.44 -60.2881 1872.44 273.212 2001.44C540.012 2104.64 930.379 1816.44 1092.21 1659.44M612.212 129.443C775.045 22.2761 1084.91 -117.757 1021.71 179.443C942.712 550.943 557.212 532.943 717.712 889.943C846.112 1175.54 1223.55 1174.61 1396.21 1138.44C1656.38 1057.78 2095.41 951.343 1770.21 1170.94C1363.71 1445.44 550.712 1743.44 884.212 1872.44C1151.01 1975.64 1541.38 1687.44 1703.21 1530.44M30.3071 252.3C193.14 145.133 503.007 5.09991 439.807 302.3C360.807 673.8 -24.6929 655.8 135.807 1012.8C264.207 1298.4 641.64 1297.47 814.307 1261.3C1074.47 1180.63 1513.51 1074.2 1188.31 1293.8C781.807 1568.3 -31.1929 1866.3 302.307 1995.3C569.107 2098.5 959.474 1810.3 1121.31 1653.3M59.4023 246.157C222.236 138.99 532.102 -1.04291 468.902 296.157C389.902 667.657 4.40234 649.657 164.902 1006.66C293.302 1292.26 670.736 1291.32 843.402 1255.16C1103.57 1174.49 1542.6 1068.06 1217.4 1287.66C810.902 1562.16 -2.09766 1860.16 331.402 1989.16C598.202 2092.36 988.569 1804.16 1150.4 1647.16M88.4976 240.014C251.331 132.848 561.198 -7.18573 497.998 290.014C418.998 661.514 33.4976 643.514 193.998 1000.51C322.398 1286.11 699.831 1285.18 872.498 1249.01C1132.66 1168.35 1571.7 1061.91 1246.5 1281.51C839.998 1556.01 26.9976 1854.01 360.498 1983.01C627.298 2086.21 1017.66 1798.01 1179.5 1641.01M117.593 233.871C280.426 126.705 590.293 -13.3288 527.093 283.871C448.093 655.371 62.5928 637.371 223.093 994.371C351.493 1279.97 728.926 1279.04 901.593 1242.87C1161.76 1162.2 1600.79 1055.77 1275.59 1275.37C869.093 1549.87 56.0928 1847.87 389.593 1976.87C656.393 2080.07 1046.76 1791.87 1208.59 1634.87M146.688 227.728C309.521 120.562 619.388 -19.4716 556.188 277.728C477.188 649.228 91.688 631.228 252.188 988.228C380.588 1273.83 758.021 1272.89 930.688 1236.73C1190.85 1156.06 1629.89 1049.63 1304.69 1269.23C898.188 1543.73 85.188 1841.73 418.688 1970.73C685.488 2073.93 1075.85 1785.73 1237.69 1628.73M175.783 221.586C338.617 114.419 648.483 -25.6144 585.283 271.586C506.283 643.086 120.783 625.085 281.283 982.085C409.683 1267.69 787.117 1266.75 959.783 1230.59C1219.95 1149.92 1658.98 1043.49 1333.78 1263.09C927.283 1537.59 114.283 1835.59 447.783 1964.59C714.583 2067.79 1104.95 1779.59 1266.78 1622.59M204.879 215.443C367.712 108.276 677.579 -31.7573 614.379 265.443C535.379 636.943 149.879 618.943 310.379 975.943C438.779 1261.54 816.212 1260.61 988.879 1224.44C1249.05 1143.78 1688.08 1037.34 1362.88 1256.94C956.379 1531.44 143.379 1829.44 476.879 1958.44C743.679 2061.64 1134.05 1773.44 1295.88 1616.44M233.974 209.3C396.807 102.133 706.674 -37.9001 643.474 259.3C564.474 630.8 178.974 612.8 339.474 969.8C467.874 1255.4 845.307 1254.47 1017.97 1218.3C1278.14 1137.63 1717.17 1031.2 1391.97 1250.8C985.474 1525.3 172.474 1823.3 505.974 1952.3C772.774 2055.5 1163.14 1767.3 1324.97 1610.3M263.069 203.157C425.902 95.9904 735.769 -44.0429 672.569 253.157C593.569 624.657 208.069 606.657 368.569 963.657C496.969 1249.26 874.402 1248.32 1047.07 1212.16C1307.24 1131.49 1746.27 1025.06 1421.07 1244.66C1014.57 1519.16 201.569 1817.16 535.069 1946.16C801.869 2049.36 1192.24 1761.16 1354.07 1604.16M292.164 197.014C454.998 89.8476 764.864 -50.1857 701.664 247.014C622.664 618.514 237.164 600.514 397.664 957.514C526.064 1243.11 903.498 1242.18 1076.16 1206.01C1336.33 1125.35 1775.36 1018.91 1450.16 1238.51C1043.66 1513.01 230.664 1811.01 564.164 1940.01C830.964 2043.21 1221.33 1755.01 1383.16 1598.01M321.26 190.871C484.093 83.7045 793.96 -56.3288 730.76 240.871C651.76 612.371 266.26 594.371 426.76 951.371C555.16 1236.97 932.593 1236.04 1105.26 1199.87C1365.43 1119.2 1804.46 1012.77 1479.26 1232.37C1072.76 1506.87 259.76 1804.87 593.26 1933.87C860.06 2037.07 1250.43 1748.87 1412.26 1591.87M350.355 184.728C513.188 77.5617 823.055 -62.4716 759.855 234.728C680.855 606.228 295.355 588.228 455.855 945.228C584.255 1230.83 961.688 1229.89 1134.35 1193.73C1394.52 1113.06 1833.55 1006.63 1508.35 1226.23C1101.85 1500.73 288.855 1798.73 622.355 1927.73C889.155 2030.93 1279.52 1742.73 1441.35 1585.73M379.45 178.586C542.283 71.4189 852.15 -68.6145 788.95 228.586C709.95 600.086 324.45 582.085 484.95 939.085C613.35 1224.69 990.783 1223.75 1163.45 1187.59C1423.62 1106.92 1862.65 1000.49 1537.45 1220.09C1130.95 1494.59 317.95 1792.59 651.45 1921.59C918.25 2024.79 1308.62 1736.59 1470.45 1579.59M408.545 172.443C571.378 65.2761 881.245 -74.7573 818.045 222.443C739.045 593.943 353.545 575.943 514.045 932.943C642.445 1218.54 1019.88 1217.61 1192.55 1181.44C1452.71 1100.78 1891.75 994.343 1566.55 1213.94C1160.05 1488.44 347.045 1786.44 680.545 1915.44C947.345 2018.64 1337.71 1730.44 1499.55 1573.44M437.64 166.3C600.474 59.1332 910.34 -80.9001 847.14 216.3C768.14 587.8 382.64 569.8 543.14 926.8C671.54 1212.4 1048.97 1211.47 1221.64 1175.3C1481.81 1094.63 1920.84 988.2 1595.64 1207.8C1189.14 1482.3 376.14 1780.3 709.64 1909.3C976.44 2012.5 1366.81 1724.3 1528.64 1567.3M466.736 160.157C629.569 52.9904 939.436 -87.0429 876.236 210.157C797.236 581.657 411.736 563.657 572.236 920.657C700.636 1206.26 1078.07 1205.32 1250.74 1169.16C1510.9 1088.49 1949.94 982.057 1624.74 1201.66C1218.24 1476.16 405.236 1774.16 738.736 1903.16C1005.54 2006.36 1395.9 1718.16 1557.74 1561.16M495.831 154.014C658.664 46.8476 968.531 -93.1857 905.331 204.014C826.331 575.514 440.831 557.514 601.331 914.514C729.731 1200.11 1107.16 1199.18 1279.83 1163.01C1540 1082.35 1979.03 975.914 1653.83 1195.51C1247.33 1470.01 434.331 1768.01 767.831 1897.01C1034.63 2000.21 1425 1712.01 1586.83 1555.01M524.926 147.871C687.76 40.7045 997.626 -99.3288 934.426 197.871C855.426 569.371 469.926 551.371 630.426 908.371C758.826 1193.97 1136.26 1193.04 1308.93 1156.87C1569.09 1076.2 2008.13 969.771 1682.93 1189.37C1276.43 1463.87 463.426 1761.87 796.926 1890.87C1063.73 1994.07 1454.09 1705.87 1615.93 1548.87M554.021 141.728C716.855 34.5617 1026.72 -105.472 963.521 191.728C884.521 563.228 499.021 545.228 659.521 902.228C787.921 1187.83 1165.35 1186.89 1338.02 1150.73C1598.19 1070.06 2037.22 963.628 1712.02 1183.23C1305.52 1457.73 492.521 1755.73 826.021 1884.73C1092.82 1987.93 1483.19 1699.73 1645.02 1542.73M583.117 135.586C745.95 28.4189 1055.82 -111.614 992.617 185.586C913.617 557.086 528.117 539.085 688.617 896.085C817.017 1181.69 1194.45 1180.75 1367.12 1144.59C1627.28 1063.92 2066.32 957.485 1741.12 1177.09C1334.62 1451.59 521.617 1749.59 855.117 1878.59C1121.92 1981.79 1512.28 1693.59 1674.12 1536.59" stroke="#C1D645" stroke-width="2"/>
</svg>
